<svg width="207" height="34" viewBox="0 0 207 34" fill="none" xmlns="http://www.w3.org/2000/svg">
<rect x="41.2229" y="25.3901" width="26" height="2.5" fill="#FB4768"/>
<path d="M77.023 30.1863C78.2535 30.1863 79.369 29.6573 80.151 28.8178L78.725 27.5528C78.311 28.0703 77.7015 28.4038 77.023 28.4038C75.8155 28.4038 74.792 27.3458 74.792 26.0923C74.792 24.8503 75.8155 23.7923 77.023 23.7923C77.69 23.7923 78.311 24.1258 78.7135 24.6433L80.151 23.3668C79.369 22.5388 78.2535 22.0098 77.023 22.0098C74.7115 22.0098 72.768 23.8728 72.768 26.0923C72.768 28.3118 74.7115 30.1863 77.023 30.1863ZM85.83 30.1863C88.13 30.1863 90.0735 28.3118 90.0735 26.0923C90.0735 23.8728 88.13 22.0098 85.83 22.0098C83.5185 22.0098 81.575 23.8728 81.575 26.0923C81.575 28.3118 83.5185 30.1863 85.83 30.1863ZM85.83 28.4038C84.6225 28.4038 83.599 27.3458 83.599 26.0923C83.599 24.8503 84.6225 23.7923 85.83 23.7923C87.0375 23.7923 88.0495 24.8503 88.0495 26.0923C88.0495 27.3458 87.0375 28.4038 85.83 28.4038ZM92.0764 30.0483H94.0429V25.3793L97.4929 30.0483H99.4479V22.1478H97.4929V26.8168L94.0429 22.1478H92.0764V30.0483ZM103.735 30.0483H105.701V23.9073H108.105V22.1478H101.343V23.9073H103.735V30.0483ZM116.71 30.0483L114.835 27.3918C115.951 27.0008 116.664 26.0693 116.664 24.8618C116.664 23.2633 115.41 22.1478 113.662 22.1478H109.994V30.0483H111.96V27.5758H112.742L114.479 30.0483H116.71ZM111.96 23.9418H113.49C114.168 23.9418 114.64 24.3098 114.64 24.8618C114.64 25.4138 114.168 25.7818 113.49 25.7818H111.96V23.9418ZM118.722 30.0483H120.688V22.1478H118.722V30.0483ZM123.104 30.0483H127.393C128.957 30.0483 130.073 29.1743 130.073 27.9093C130.073 27.0468 129.532 26.2993 128.612 25.8968C129.302 25.5518 129.716 24.9193 129.716 24.1373C129.716 22.9873 128.693 22.1478 127.232 22.1478H123.104V30.0483ZM125.059 25.2758V23.8153H126.761C127.301 23.8153 127.692 24.1143 127.692 24.5398C127.692 24.9653 127.301 25.2758 126.761 25.2758H125.059ZM125.059 28.3808V26.7938H127.048C127.635 26.7938 128.049 27.1273 128.049 27.5873C128.049 28.0473 127.635 28.3808 127.048 28.3808H125.059ZM135.542 30.1863C137.704 30.1863 139.21 28.7028 139.21 26.5868V22.1478H137.255V26.4948C137.255 27.6103 136.542 28.4038 135.542 28.4038C134.553 28.4038 133.84 27.6103 133.84 26.4948V22.1478H131.873V26.5868C131.873 28.7028 133.391 30.1863 135.542 30.1863ZM143.322 30.0483H145.289V23.9073H147.692V22.1478H140.93V23.9073H143.322V30.0483ZM153.41 30.1863C155.71 30.1863 157.654 28.3118 157.654 26.0923C157.654 23.8728 155.71 22.0098 153.41 22.0098C151.099 22.0098 149.155 23.8728 149.155 26.0923C149.155 28.3118 151.099 30.1863 153.41 30.1863ZM153.41 28.4038C152.203 28.4038 151.179 27.3458 151.179 26.0923C151.179 24.8503 152.203 23.7923 153.41 23.7923C154.618 23.7923 155.63 24.8503 155.63 26.0923C155.63 27.3458 154.618 28.4038 153.41 28.4038ZM166.373 30.0483L164.498 27.3918C165.614 27.0008 166.327 26.0693 166.327 24.8618C166.327 23.2633 165.073 22.1478 163.325 22.1478H159.657V30.0483H161.623V27.5758H162.405L164.142 30.0483H166.373ZM161.623 23.9418H163.153C163.831 23.9418 164.303 24.3098 164.303 24.8618C164.303 25.4138 163.831 25.7818 163.153 25.7818H161.623V23.9418ZM171.479 30.1863C173.434 30.1863 174.641 29.1973 174.641 27.6103C174.641 26.1268 173.503 25.6208 171.732 25.2413C170.559 24.9883 170.179 24.8273 170.179 24.3443C170.179 23.9533 170.536 23.6543 171.168 23.6543C171.904 23.6543 172.698 23.9418 173.422 24.4938L174.423 23.0908C173.583 22.4008 172.548 22.0098 171.214 22.0098C169.42 22.0098 168.201 23.0218 168.201 24.5398C168.201 26.1268 169.455 26.5868 171.145 26.9663C172.295 27.2423 172.663 27.3458 172.663 27.8173C172.663 28.2428 172.284 28.5418 171.548 28.5418C170.582 28.5418 169.719 28.1738 168.949 27.5413L167.833 28.8638C168.799 29.7263 170.076 30.1863 171.479 30.1863Z" fill="black"/>
<rect x="180.164" y="25.3901" width="26" height="2.5" fill="#FB4768"/>
<path d="M49.0549 12.6112C49.8469 12.6265 50.6313 12.458 51.3433 12.1195C52.0554 11.7809 52.6747 11.2821 53.1502 10.6643L55.3514 12.8608C53.6109 14.7579 51.6144 15.7064 49.2597 15.7064C48.1993 15.7479 47.1413 15.581 46.1484 15.2156C45.1556 14.8503 44.2482 14.294 43.4803 13.5797C42.7335 12.8782 42.1469 12.0309 41.7588 11.0933C41.3707 10.1556 41.1898 9.14868 41.2279 8.1382C41.1987 7.11692 41.3886 6.10095 41.7852 5.15534C42.1819 4.20972 42.7767 3.35531 43.5315 2.64678C44.3433 1.89979 45.3019 1.32096 46.3495 0.945218C47.397 0.569482 48.5118 0.404631 49.6264 0.460616C50.7411 0.516602 51.8326 0.792263 52.835 1.27096C53.8374 1.74966 54.73 2.42147 55.4589 3.24584L53.36 5.59218C52.8977 4.98506 52.2953 4.4925 51.6017 4.15429C50.9081 3.81608 50.1427 3.64169 49.3672 3.64522C48.1584 3.62254 46.9864 4.05114 46.091 4.84335C45.6263 5.25962 45.2615 5.77073 45.0226 6.34025C44.7837 6.90977 44.6766 7.52367 44.7088 8.1382C44.6765 8.75141 44.7733 9.36459 44.9934 9.93987C45.2136 10.5151 45.5522 11.0403 45.9886 11.483C46.8326 12.2157 47.925 12.6176 49.0549 12.6112Z" fill="black"/>
<path d="M58.0186 15.5068V0.679932H61.3971V12.5813H67.8983V15.5267L58.0186 15.5068Z" fill="black"/>
<path d="M82.7435 13.4599C81.2053 14.871 79.1731 15.6567 77.0614 15.6567C74.9496 15.6567 72.9174 14.871 71.3792 13.4599C70.6291 12.7584 70.0369 11.9123 69.6403 10.9755C69.2437 10.0387 69.0514 9.03164 69.0756 8.0184C69.0467 7.00455 69.2368 5.9961 69.6337 5.05861C70.0305 4.12111 70.6253 3.27556 71.3792 2.57691C72.9174 1.16581 74.9496 0.380127 77.0614 0.380127C79.1731 0.380127 81.2053 1.16581 82.7435 2.57691C83.4936 3.2784 84.0858 4.12447 84.4824 5.06129C84.879 5.99811 85.0713 7.00517 85.0471 8.0184C85.076 9.03226 84.8859 10.0407 84.489 10.9782C84.0922 11.9157 83.4974 12.7612 82.7435 13.4599ZM81.5661 8.0184C81.5756 6.76395 81.1004 5.552 80.2352 4.62371C79.8277 4.18383 79.3301 3.83219 78.7746 3.59153C78.2191 3.35086 77.618 3.22651 77.0102 3.22651C76.4023 3.22651 75.8012 3.35086 75.2457 3.59153C74.6902 3.83219 74.1926 4.18383 73.7852 4.62371C72.9101 5.54608 72.4334 6.76197 72.4542 8.0184C72.4447 9.27286 72.9199 10.4848 73.7852 11.4131C74.1926 11.853 74.6902 12.2046 75.2457 12.4453C75.8012 12.686 76.4023 12.8103 77.0102 12.8103C77.618 12.8103 78.2191 12.686 78.7746 12.4453C79.3301 12.2046 79.8277 11.853 80.2352 11.4131C80.6785 10.9628 81.0247 10.4304 81.2533 9.84727C81.482 9.26418 81.5883 8.64229 81.5661 8.0184Z" fill="black"/>
<path d="M91.9577 11.7126C92.228 12.054 92.5781 12.3273 92.9789 12.5097C93.3797 12.6921 93.8194 12.7783 94.2613 12.7609C94.6966 12.7835 95.1308 12.6994 95.5243 12.5162C95.9177 12.3331 96.2579 12.0568 96.5137 11.7126C97.1016 10.8972 97.3902 9.91216 97.3327 8.91694V0.729736H100.711V9.01679C100.711 11.1634 100.097 12.8109 98.8685 13.9591C98.2499 14.5375 97.5194 14.9899 96.7196 15.2899C95.9198 15.5899 95.0667 15.7315 94.2101 15.7063C93.3458 15.7315 92.485 15.5901 91.6768 15.2903C90.8687 14.9905 90.1291 14.5381 89.5006 13.9591C88.272 12.8109 87.6577 11.1634 87.6577 9.01679V0.729736H91.0312V8.91694C91.0316 9.92055 91.3557 10.8986 91.9577 11.7126Z" fill="black"/>
<path d="M115.864 2.62689C117.297 3.92486 118.065 5.72205 118.065 8.01846C118.065 10.3149 117.348 12.162 115.966 13.5099C114.584 14.8578 112.383 15.5068 109.516 15.5068H104.244V0.679932H109.619C112.332 0.679932 114.431 1.32892 115.864 2.62689ZM113.407 11.4631C114.226 10.7142 114.635 9.56604 114.635 8.11831C114.635 6.67057 114.226 5.52236 113.407 4.77353C112.588 4.0247 111.308 3.57541 109.567 3.57541H107.673V12.6113H109.823C111.123 12.6788 112.401 12.2692 113.407 11.4631Z" fill="black"/>
<path d="M137.364 0.679932H140.743V15.5068H137.364L130.095 6.22127V15.5068H126.716V0.679932H129.89L137.364 10.215V0.679932Z" fill="black"/>
<path d="M155.332 15.5068L153.898 12.3118H147.5L146.066 15.5068H142.432L148.984 0.679932H152.26L158.813 15.5068H155.332ZM150.776 5.12299L148.882 9.41628H152.67L150.776 5.12299Z" fill="black"/>
<path d="M166.082 3.59531V15.5766H162.698V3.59531H158.398V0.749756H170.428V3.59531H166.082Z" fill="black"/>
<path d="M172.839 0.679932H176.217V15.5068H172.839V0.679932Z" fill="black"/>
<path d="M185.585 10.1152L189.476 0.679932H193.162L187.07 15.5068H184.198L178.106 0.679932H181.792L185.585 10.1152Z" fill="black"/>
<path d="M205.908 0.679932V3.62533H198.332V6.67057H205.14V9.51613H198.332V12.6113H206.164V15.5767H194.948V0.729854H205.903L205.908 0.679932Z" fill="black"/>
<path d="M4.67787 21.6968H0.0195312V32.3801H10.9231V27.8072H4.67787V21.6968Z" fill="black"/>
<path d="M28.1232 21.7467V27.8072H21.8779V32.4001H32.7815V21.6968H28.0669L28.1232 21.7467Z" fill="black"/>
<path d="M0.0195312 11.0634H4.72906L4.67787 11.0135V4.97295H10.9231V0.380127H0.0195312V11.0634Z" fill="black"/>
<path d="M21.8779 0.380127V4.97295H28.1232V11.0634H32.7815V0.380127H21.8779Z" fill="black"/>
<g opacity="0.8">
<path opacity="0.8" d="M21.2636 11.0634L15.0183 4.97295H21.8779V0.380127H10.9231V4.97295L17.1683 11.0634H21.2636Z" fill="black"/>
<path opacity="0.8" d="M15.6326 21.6968H11.5374L16.7076 26.7389L17.7314 27.7873H10.9231V32.3801H21.8779V27.7373L18.7553 24.742L15.6326 21.6968Z" fill="black"/>
<path opacity="0.8" d="M28.1232 11.0635V17.7031L27.0431 16.6547L21.8728 11.6126V15.6563L24.9442 18.6516L28.0669 21.6969H32.7764V11.0635H28.1232Z" fill="black"/>
<path opacity="0.8" d="M10.9231 17.104L4.72906 11.0635H0.0195312V21.6969H4.67787V15.0572L10.9231 21.1477V17.104Z" fill="black"/>
</g>
</svg>
